<svg width="30" height="30" viewBox="0 0 30 30" fill="none" xmlns="http://www.w3.org/2000/svg">
<path fill-rule="evenodd" clip-rule="evenodd" d="M13.75 21.25C14.7349 21.25 15.7102 21.056 16.6201 20.6791C17.5301 20.3022 18.3569 19.7497 19.0533 19.0533C19.7497 18.3569 20.3022 17.5301 20.6791 16.6201C21.056 15.7102 21.25 14.7349 21.25 13.75C21.25 12.7651 21.056 11.7898 20.6791 10.8799C20.3022 9.96993 19.7497 9.14314 19.0533 8.4467C18.3569 7.75026 17.5301 7.19781 16.6201 6.8209C15.7102 6.44399 14.7349 6.25 13.75 6.25C11.7609 6.25 9.85322 7.04018 8.4467 8.4467C7.04018 9.85322 6.25 11.7609 6.25 13.75C6.25 15.7391 7.04018 17.6468 8.4467 19.0533C9.85322 20.4598 11.7609 21.25 13.75 21.25ZM13.75 23.75C16.4022 23.75 18.9457 22.6964 20.8211 20.8211C22.6964 18.9457 23.75 16.4022 23.75 13.75C23.75 11.0978 22.6964 8.5543 20.8211 6.67893C18.9457 4.80357 16.4022 3.75 13.75 3.75C11.0978 3.75 8.5543 4.80357 6.67893 6.67893C4.80357 8.5543 3.75 11.0978 3.75 13.75C3.75 16.4022 4.80357 18.9457 6.67893 20.8211C8.5543 22.6964 11.0978 23.75 13.75 23.75Z" fill="white"/>
<path fill-rule="evenodd" clip-rule="evenodd" d="M19.15 19.1125C19.3852 18.879 19.7036 18.7485 20.035 18.7496C20.3665 18.7508 20.6839 18.8836 20.9175 19.1188L25.8862 24.1188C26.1134 24.3551 26.2385 24.6713 26.2348 24.9991C26.2311 25.3268 26.0987 25.64 25.8663 25.8712C25.6338 26.1023 25.3199 26.2329 24.9921 26.2348C24.6642 26.2367 24.3488 26.1097 24.1137 25.8813L19.145 20.8813C18.9113 20.6462 18.7806 20.3279 18.7815 19.9965C18.7824 19.665 18.915 19.3475 19.15 19.1138V19.1125Z" fill="white"/>
</svg>
