<svg width="30" height="30" viewBox="0 0 30 30" fill="none" xmlns="http://www.w3.org/2000/svg">
<path d="M13.4787 23.5349C15.4673 23.5369 17.4117 22.9496 19.0667 21.8472C20.7217 20.7448 22.013 19.1769 22.7775 17.3412C23.5416 15.5053 23.7431 13.4838 23.3566 11.5332C22.97 9.58254 22.0127 7.79069 20.6063 6.38494C19.2006 4.97863 17.4096 4.02059 15.4596 3.63189C13.5096 3.2432 11.4882 3.44129 9.65071 4.20115C7.81327 4.96101 6.24233 6.24852 5.13643 7.90096C4.03053 9.55339 3.43932 11.4966 3.4375 13.4849C3.4375 16.1487 4.495 18.7024 6.3775 20.5862C8.2606 22.4701 10.8138 23.5305 13.4775 23.5349M20.61 20.6137L26.5625 26.5624" stroke="white" stroke-width="1.5" stroke-linecap="round" stroke-linejoin="round"/>
</svg>
