<svg width="40" height="40" viewBox="0 0 40 40" fill="none" xmlns="http://www.w3.org/2000/svg">
<path d="M13.0417 21.6667L21.2083 29.8333C21.5417 30.1667 21.7017 30.5556 21.6883 31C21.675 31.4444 21.5011 31.8333 21.1667 32.1667C20.8333 32.4722 20.4444 32.6322 20 32.6467C19.5556 32.6611 19.1667 32.5011 18.8333 32.1667L7.83333 21.1667C7.66667 21 7.54833 20.8194 7.47833 20.625C7.40833 20.4306 7.37444 20.2222 7.37667 20C7.37889 19.7778 7.41389 19.5694 7.48167 19.375C7.54944 19.1806 7.66722 19 7.835 18.8333L18.835 7.83333C19.1406 7.52778 19.5228 7.375 19.9817 7.375C20.4406 7.375 20.8361 7.52778 21.1683 7.83333C21.5017 8.16667 21.6683 8.56278 21.6683 9.02167C21.6683 9.48056 21.5017 9.87611 21.1683 10.2083L13.0417 18.3333H31.6667C32.1389 18.3333 32.535 18.4933 32.855 18.8133C33.175 19.1333 33.3344 19.5289 33.3333 20C33.3322 20.4711 33.1722 20.8672 32.8533 21.1883C32.5344 21.5094 32.1389 21.6689 31.6667 21.6667H13.0417Z" fill="black"/>
</svg>
