<svg aria-hidden="true" style="position: absolute; width: 0; height: 0; overflow: hidden;" version="1.1" xmlns="http://www.w3.org/2000/svg" xmlns:xlink="http://www.w3.org/1999/xlink">
<defs>
<symbol id="icon-wi_day-sunny" viewBox="0 0 32 32">
<path fill="#fff" style="fill: var(--color1, #fff)" d="M4.661 15.595c0-0.256 0.085-0.48 0.267-0.661 0.181-0.171 0.405-0.256 0.64-0.256h2.176c0.245 0 0.448 0.085 0.619 0.267 0.16 0.181 0.245 0.395 0.245 0.651s-0.075 0.469-0.235 0.651c-0.16 0.181-0.373 0.267-0.619 0.267h-2.176c-0.245 0-0.459-0.085-0.64-0.267-0.088-0.084-0.159-0.185-0.206-0.297s-0.072-0.232-0.071-0.354zM7.712 22.987c0-0.245 0.085-0.459 0.245-0.651l1.568-1.525c0.16-0.171 0.373-0.245 0.629-0.245s0.469 0.085 0.64 0.245c0.171 0.16 0.256 0.363 0.256 0.608 0 0.256-0.085 0.491-0.256 0.683l-1.515 1.515c-0.437 0.341-0.875 0.341-1.312 0-0.083-0.082-0.149-0.18-0.193-0.288s-0.066-0.224-0.063-0.341zM7.712 8.224c0-0.245 0.085-0.459 0.245-0.651 0.213-0.181 0.437-0.267 0.683-0.267 0.235 0 0.448 0.085 0.629 0.256l1.525 1.568c0.171 0.16 0.256 0.373 0.256 0.629s-0.085 0.469-0.256 0.64c-0.171 0.171-0.384 0.256-0.64 0.256s-0.469-0.085-0.629-0.256l-1.557-1.525c-0.084-0.086-0.15-0.187-0.194-0.299s-0.065-0.231-0.062-0.351zM10.432 15.595c0-0.992 0.245-1.92 0.747-2.773s1.173-1.536 2.037-2.037c0.864-0.501 1.781-0.747 2.773-0.747 0.747 0 1.461 0.149 2.155 0.448 0.683 0.299 1.28 0.693 1.771 1.195 0.501 0.501 0.896 1.088 1.184 1.771s0.437 1.408 0.437 2.155c0 1.003-0.245 1.931-0.747 2.784s-1.173 1.525-2.027 2.027c-0.853 0.501-1.781 0.747-2.784 0.747s-1.931-0.245-2.784-0.747c-0.853-0.501-1.525-1.173-2.027-2.027-0.48-0.864-0.736-1.792-0.736-2.795zM12.245 15.595c0 1.045 0.363 1.931 1.099 2.667 0.725 0.736 1.611 1.109 2.656 1.109s1.931-0.373 2.667-1.109c0.736-0.736 1.109-1.621 1.109-2.667 0-1.024-0.373-1.899-1.109-2.635-0.736-0.725-1.621-1.088-2.667-1.088-1.035 0-1.92 0.363-2.645 1.088-0.747 0.736-1.109 1.611-1.109 2.635zM15.083 23.893c0-0.256 0.085-0.469 0.267-0.64s0.395-0.256 0.64-0.256c0.256 0 0.48 0.085 0.651 0.256s0.256 0.384 0.256 0.64v2.123c0 0.256-0.085 0.48-0.267 0.661s-0.395 0.267-0.64 0.267c-0.245 0-0.469-0.085-0.64-0.267-0.087-0.086-0.156-0.189-0.201-0.303s-0.068-0.236-0.065-0.358v-2.123zM15.083 7.36v-2.176c0-0.245 0.085-0.459 0.267-0.64s0.395-0.277 0.651-0.277c0.256 0 0.459 0.085 0.64 0.267s0.267 0.395 0.267 0.64v2.187c0 0.245-0.085 0.448-0.267 0.619s-0.395 0.245-0.64 0.245c-0.245 0-0.469-0.085-0.64-0.245s-0.277-0.373-0.277-0.619zM20.971 21.419c0-0.245 0.085-0.448 0.245-0.597 0.16-0.171 0.363-0.245 0.597-0.245 0.256 0 0.469 0.085 0.64 0.245l1.557 1.525c0.171 0.181 0.256 0.405 0.256 0.651s-0.085 0.459-0.256 0.629c-0.427 0.331-0.853 0.331-1.28 0l-1.515-1.515c-0.164-0.194-0.251-0.44-0.245-0.693zM20.971 9.771c0-0.267 0.085-0.48 0.245-0.629l1.515-1.568c0.168-0.165 0.394-0.257 0.629-0.256 0.256 0 0.469 0.085 0.64 0.267 0.181 0.181 0.267 0.395 0.267 0.64 0 0.267-0.085 0.491-0.256 0.661l-1.557 1.525c-0.192 0.171-0.405 0.256-0.64 0.256-0.245 0-0.437-0.085-0.597-0.256s-0.245-0.384-0.245-0.64zM23.381 15.595c0-0.256 0.085-0.469 0.256-0.661 0.171-0.171 0.373-0.256 0.608-0.256h2.155c0.245 0 0.459 0.096 0.64 0.277s0.277 0.395 0.277 0.64c0 0.245-0.096 0.459-0.277 0.64s-0.395 0.267-0.64 0.267h-2.155c-0.245 0-0.459-0.085-0.619-0.267s-0.245-0.384-0.245-0.64z"></path>
</symbol>
<symbol id="icon-ic_round-dark-mode" viewBox="0 0 32 32">
<path fill="#fff" style="fill: var(--color1, #fff)" d="M14.68 4.067c-6 0.653-10.68 5.747-10.68 11.933 0 3.183 1.264 6.235 3.515 8.485s5.303 3.515 8.485 3.515c6.173 0 11.267-4.667 11.933-10.667 0.12-1.053-1.040-1.893-2.053-1.267-1.088 0.695-2.344 1.084-3.634 1.128s-2.569-0.261-3.702-0.881-2.078-1.533-2.736-2.644c-0.659-1.111-1.007-2.378-1.008-3.669 0-1.413 0.413-2.747 1.12-3.853 0.6-0.893-0.053-2.173-1.24-2.080z"></path>
</symbol>
<symbol id="icon-cuida_search-outline" viewBox="0 0 32 32">
<path fill="#fff" style="fill: var(--color1, #fff)" d="M14.667 22.667c-2.122 0-4.157-0.843-5.657-2.343s-2.343-3.535-2.343-5.657c0-2.122 0.843-4.157 2.343-5.657s3.535-2.343 5.657-2.343c1.051 0 2.091 0.207 3.061 0.609s1.853 0.991 2.595 1.734 1.332 1.625 1.734 2.595c0.402 0.971 0.609 2.011 0.609 3.061s-0.207 2.091-0.609 3.061c-0.402 0.971-0.991 1.853-1.734 2.595s-1.625 1.332-2.595 1.734c-0.971 0.402-2.011 0.609-3.061 0.609zM14.667 25.333c2.829 0 5.542-1.124 7.542-3.124s3.124-4.713 3.124-7.543-1.124-5.542-3.124-7.542c-2-2-4.713-3.124-7.543-3.124s-5.542 1.124-7.542 3.124c-2 2-3.124 4.713-3.124 7.542s1.124 5.542 3.124 7.543c2 2 4.713 3.124 7.542 3.124z"></path>
<path fill="#fff" style="fill: var(--color1, #fff)" d="M20.427 20.387c0.251-0.249 0.59-0.388 0.944-0.387s0.692 0.143 0.941 0.394l5.3 5.333c0.242 0.252 0.376 0.589 0.372 0.939s-0.145 0.684-0.393 0.93c-0.248 0.247-0.583 0.386-0.932 0.388s-0.686-0.133-0.937-0.377l-5.3-5.333c-0.249-0.251-0.389-0.59-0.388-0.944s0.142-0.692 0.393-0.942v-0.001z"></path>
</symbol>
<symbol id="icon-material-symbols_arrow-back-rounded" viewBox="0 0 32 32">
<path d="M10.433 17.333l6.533 6.533c0.267 0.267 0.395 0.578 0.384 0.933s-0.15 0.667-0.417 0.933c-0.267 0.244-0.578 0.372-0.933 0.384s-0.667-0.116-0.933-0.384l-8.8-8.8c-0.133-0.133-0.228-0.278-0.284-0.433s-0.083-0.322-0.081-0.5c0.002-0.178 0.030-0.344 0.084-0.5s0.148-0.3 0.283-0.433l8.8-8.8c0.244-0.244 0.55-0.367 0.917-0.367s0.684 0.122 0.949 0.367c0.267 0.267 0.4 0.584 0.4 0.951s-0.133 0.684-0.4 0.949l-6.501 6.5h14.9c0.378 0 0.695 0.128 0.951 0.384s0.384 0.572 0.383 0.949c-0.001 0.377-0.129 0.694-0.384 0.951s-0.572 0.384-0.949 0.383h-14.9z"></path>
</symbol>
</defs>
</svg>